<svg t="1723283203064" class="icon" viewBox="0 0 1024 1024" version="1.1" xmlns="http://www.w3.org/2000/svg" p-id="1490" width="200" height="200"><path d="M512 512m-512 0a512 512 0 1 0 1024 0 512 512 0 1 0-1024 0Z" fill="#ED5458" p-id="1491"></path><path d="M312.888889 455.111111a85.333333 85.333333 0 1 1 0-170.666667 85.333333 85.333333 0 0 1 0 170.666667z m-61.610667 295.424c44.373333-95.004444 151.608889-161.393778 263.566222-161.393778 113.493333 0 214.812444 64.455111 258.161778 162.019556a36.636444 36.636444 0 0 1-66.901333 29.696c-31.516444-70.826667-106.382222-118.499556-191.260445-118.499556-83.911111 0-165.034667 50.232889-197.233777 119.125334a36.636444 36.636444 0 0 1-66.332445-30.947556zM711.111111 455.111111a85.333333 85.333333 0 1 1 0-170.666667 85.333333 85.333333 0 0 1 0 170.666667z" fill="#FFFFFF" p-id="1492"></path></svg>