<svg t="1723283357794" class="icon" viewBox="0 0 1024 1024" version="1.1" xmlns="http://www.w3.org/2000/svg" p-id="9906" width="200" height="200"><path d="M512 4.836531c280.097364 0 507.163469 227.066105 507.163469 507.173503 0 280.08733-227.066105 507.153435-507.163469 507.153435S4.836531 792.097364 4.836531 512.010034C4.836531 231.902636 231.902636 4.836531 512 4.836531zM209.86732 264.042489c-10.234983 0-18.543381 8.288329-18.543381 18.503244l0 440.304949c0 5.2078 2.227614 10.245017 6.110887 13.746987 3.863204 3.451798 8.56929 5.217834 14.33901 4.665948 0.371269-0.040137 41.040274-4.13413 94.282254-4.13413 54.476198 0 130.917472 4.395022 185.664596 25.206154 2.107202 0.802744 4.344851 1.21415 6.56243 1.21415 2.960118 0 5.699481-0.903087 8.248192-2.197511 5.41852 2.117237 10.827006 4.314748 16.27563 6.682842 1.996825 0.903087 4.114062 1.35463 6.311573 1.35463 2.759432 0 5.408486-0.963293 7.836786-2.348025 2.448368 1.414836 5.097423 2.348025 7.856854 2.348025 2.177442 0 4.294679-0.451543 6.291504-1.334561 5.428555-2.388163 10.897246-4.585674 16.305732-6.70291 2.528643 1.294424 5.288074 2.197511 8.228123 2.197511 2.277785 0 4.445194-0.411406 6.582499-1.21415 54.73709-20.8312 131.168329-25.206154 185.654561-25.206154 53.252014 0 93.910985 4.093993 94.34246 4.13413 5.308143 0.471612 10.425634-1.21415 14.288839-4.665948 3.883273-3.512004 6.110887-8.549221 6.110887-13.746987l0-440.304949c0-10.214914-8.328466-18.523312-18.543381-18.523312s-18.523312 8.308398-18.523312 18.523312l0 420.176149c-12.502734-0.923155-29.04929-1.846311-48.254934-2.348025L797.29513 258.062048c0-9.522548-6.502224-17.459677-15.191926-18.422969-13.736952-1.505145-27.774934-2.297854-41.682469-2.297854-113.829064 0-193.792376 50.372171-203.505576 56.814189-9.723234-6.452053-89.686546-56.814189-203.485507-56.814189-13.937638 0-27.97562 0.782675-41.702538 2.297854-8.63953 0.963293-15.171857 8.900421-15.171857 18.422969l0 442.301774c-19.215679 0.531818-35.7522 1.454973-48.295071 2.348025L228.260186 282.545732C228.350495 272.330818 220.042097 264.042489 209.86732 264.042489L209.86732 264.042489zM561.74001 321.46877c21.955042-12.663283 89.937403-47.070887 178.740931-47.070887 7.70634 0 15.462852 0.250857 23.108986 0.762607l0 419.413542c-8.92049-0.551886-18.282489-0.822812-27.945517-0.822812-42.414973 0-106.473925 5.368349-173.894366 30.514297L561.750044 321.46877 561.74001 321.46877zM310.380872 275.150456c7.646134-0.511749 15.382577-0.762607 23.108986-0.762607 88.823596 0 156.785889 34.437707 178.761 47.070887l0 402.796747c-67.420441-25.145948-131.499461-30.514297-173.914434-30.514297-9.663028 0-19.045096 0.270926-27.935483 0.822812L310.400941 275.150456 310.380872 275.150456 310.380872 275.150456z" fill="#8a8a8a" p-id="9907"></path></svg>