<svg t="1723283411651" class="icon" viewBox="0 0 1024 1024" version="1.1" xmlns="http://www.w3.org/2000/svg" p-id="13682" width="200" height="200"><path d="M85.333333 0h853.333334a56.888889 56.888889 0 0 1 56.888889 56.888889v910.222222a56.888889 56.888889 0 0 1-56.888889 56.888889H85.333333a56.888889 56.888889 0 0 1-56.888889-56.888889V56.888889a56.888889 56.888889 0 0 1 56.888889-56.888889z m114.346667 642.702222c7.907556 36.039111 24.348444 107.008 40.732444 142.506667 0.853333 1.763556 1.422222 3.498667 2.275556 4.977778 3.413333 5.546667 9.045333 9.386667 15.843556 9.386666a17.749333 17.749333 0 0 0 5.688888-1.194666c0.568889-0.284444 1.137778-0.284444 1.934223-0.568889 22.698667-5.575111 46.449778-12.032 62.065777-14.108445 34.503111-4.693333 191.914667 37.546667 235.804445 41.073778 43.889778 3.527111 93.155556-43.690667 125.411555-61.582222 32.284444-17.891556 135.338667-87.352889 135.338667-87.352889s5.063111-49.009778-50.147555-36.124444c-55.182222 12.913778-140.373333 61.610667-140.373334 61.610666s-61.468444 19.342222-104.504889 6.172445c-30.008889-9.102222-69.632-22.897778-85.191111-38.997334-14.705778-15.246222-13.027556-30.492444-0.568889-28.501333 25.486222 4.124444 123.733333 13.824 150.584889 5.290667 26.624-8.476444 41.642667-41.329778 30.037334-61.553778 0 0-34.816-2.019556-115.228445-20.508445-80.668444-18.488889-100.494222-31.402667-135.338667-15.559111-26.88 12.344889-86.328889 48.981333-157.696 67.982223a22.471111 22.471111 0 0 0-16.696888 27.022222zM824.888889 241.749333V199.111111H483.555556v85.333333h341.333333V241.777778zM824.888889 369.777778H483.555556v85.333333h341.333333v-85.333333z" fill="#46A3FF" p-id="13683"></path></svg>