<?xml version="1.0" standalone="no"?><!DOCTYPE svg PUBLIC "-//W3C//DTD SVG 1.1//EN" "http://www.w3.org/Graphics/SVG/1.1/DTD/svg11.dtd"><svg t="1723031544205" class="icon" viewBox="0 0 1024 1024" version="1.1" xmlns="http://www.w3.org/2000/svg" p-id="27643" xmlns:xlink="http://www.w3.org/1999/xlink" width="200" height="200"><path d="M516.471616 512m-500.820961 0a500.820961 500.820961 0 1 0 1001.641921 0 500.820961 500.820961 0 1 0-1001.641921 0Z" fill="#4E6070" p-id="27644"></path><path d="M698.609467 754.665642c-17.403528 17.403528-45.851948 17.403528-63.251004 0l-154.355703-154.355703c-17.390114-17.394585-31.618795-51.741066-31.618795-76.334952V205.694323c0-24.593886 20.122271-44.716157 44.716157-44.716157h22.358079c24.593886 0 44.716157 20.122271 44.716157 44.716157v271.972611c0 24.593886 14.237624 58.944838 31.614323 76.330481l121.60559 121.610061c17.399057 17.394585 17.399057 45.847476 0 63.246533l-15.784804 15.811633z" fill="#00CCC6" p-id="27645"></path></svg>