<svg t="1723446485417" class="icon" viewBox="0 0 1024 1024" version="1.1" xmlns="http://www.w3.org/2000/svg" p-id="4054"
    width="200" height="200">
    <path
        d="M836.127601 253.137173h-556.261122c-60.814686 0-110.293154-49.478468-110.293153-110.293153s49.478468-110.293154 110.293153-110.293154h463.550935a22.378321 22.378321 0 1 1 0 44.756642h-463.550935c-36.137792 0-65.536512 29.39872-65.536511 65.536512s29.39872 65.536512 65.536511 65.536511h556.261122a22.378321 22.378321 0 1 1 0 44.756642z"
        fill="#009FE8" p-id="4055"></path>
    <path
        d="M191.951647 895.714676a22.378321 22.378321 0 0 1-22.378321-22.378321v-730.492335a22.378321 22.378321 0 1 1 44.756642 0v730.492335a22.378321 22.378321 0 0 1-22.378321 22.378321zM836.127601 991.621766a22.378321 22.378321 0 0 1-22.378321-22.378321v-738.484593a22.378321 22.378321 0 1 1 44.756642 0v738.484593a22.378321 22.378321 0 0 1-22.378321 22.378321zM743.417414 253.137173a22.378321 22.378321 0 0 1-22.378321-22.378321v-175.829665a22.378321 22.378321 0 1 1 44.756642 0v175.829665a22.378321 22.378321 0 0 1-22.378321 22.378321zM279.866479 886.123967a22.378321 22.378321 0 0 1-22.378321-22.378321v-521.095189a22.378321 22.378321 0 1 1 44.756642 0v521.095189a22.378321 22.378321 0 0 1-22.378321 22.378321z"
        fill="#009FE8" p-id="4056"></path>
    <path
        d="M836.127601 994.818669h-556.261122c-60.814686 0-110.293154-49.478468-110.293153-110.293153a22.378321 22.378321 0 1 1 44.756642 0c0 36.137792 29.39872 65.536512 65.536511 65.536511h556.261122a22.378321 22.378321 0 1 1 0 44.756642zM741.818963 690.048316H628.862789a22.378321 22.378321 0 0 1-22.378321-22.378321V324.536805a22.378321 22.378321 0 0 1 22.378321-22.378321h112.956174a22.378321 22.378321 0 0 1 22.378321 22.378321v343.13319a22.378321 22.378321 0 0 1-22.378321 22.378321z m-90.577853-44.756642h68.199532v-298.376548H651.24111v298.376548zM741.818963 125.209903H201.593506a15.984515 15.984515 0 0 1 0-31.96903h540.225457a15.984515 15.984515 0 0 1 0 31.96903zM741.818963 186.00221H201.593506a15.984515 15.984515 0 0 1 0-31.96903h540.225457a15.984515 15.984515 0 0 1 0 31.96903z"
        fill="#009FE8" p-id="4057"></path>
</svg>