<svg class="prefix__icon" viewBox="0 0 1024 1024" xmlns="http://www.w3.org/2000/svg" width="200" height="200"><path d="M512 0C229.253 0 0 229.253 0 512s229.253 512 512 512 512-229.253 512-512S794.747 0 512 0zM256 408.003c0-30.29 24.576-54.856 54.856-54.856 30.29 0 54.855 24.576 54.855 54.856s-24.576 54.855-54.855 54.855A54.876 54.876 0 01256 408.003zm256 310.845c-97.71 0-177.828-76.913-182.856-173.26a9.134 9.134 0 019.145-9.596h54.968c4.803 0 8.909 3.656 9.257 8.459 4.342 56.565 51.773 101.253 109.486 101.253s105.257-44.688 109.486-101.253a9.226 9.226 0 019.257-8.459h54.968c5.264 0 9.37 4.342 9.145 9.595C689.838 641.935 609.71 718.848 512 718.848zm201.144-256a54.876 54.876 0 01-54.855-54.856c0-30.29 24.576-54.855 54.855-54.855 30.28 0 54.856 24.576 54.856 54.855 0 30.28-24.576 54.856-54.856 54.856z" fill="#27CA41"/></svg>