<svg t="1723283246328" class="icon" viewBox="0 0 1024 1024" version="1.1" xmlns="http://www.w3.org/2000/svg" p-id="5762" width="200" height="200"><path d="M512 0C229.25312 0 0 229.25312 0 512s229.25312 512 512 512 512-229.25312 512-512S794.74688 0 512 0zM256 408.00256c0-30.28992 24.576-54.85568 54.85568-54.85568 30.28992 0 54.85568 24.576 54.85568 54.85568 0 30.27968-24.576 54.85568-54.85568 54.85568A54.87616 54.87616 0 0 1 256 408.00256zM512 718.848c-97.71008 0-177.82784-76.91264-182.85568-173.2608a9.13408 9.13408 0 0 1 9.14432-9.59488h54.96832c4.80256 0 8.9088 3.65568 9.25696 8.45824 4.34176 56.56576 51.77344 101.25312 109.48608 101.25312s105.25696-44.68736 109.48608-101.25312a9.22624 9.22624 0 0 1 9.25696-8.45824h54.96832c5.26336 0 9.3696 4.34176 9.14432 9.59488-5.0176 96.34816-85.1456 173.2608-182.85568 173.2608z m201.14432-256a54.87616 54.87616 0 0 1-54.85568-54.85568c0-30.28992 24.576-54.85568 54.85568-54.85568 30.27968 0 54.85568 24.576 54.85568 54.85568 0 30.27968-24.576 54.85568-54.85568 54.85568z" fill="#27CA41" p-id="5763"></path></svg>